<svg width="38" height="30" viewBox="0 0 38 30" fill="none" xmlns="http://www.w3.org/2000/svg">
<path d="M8.03833 0.0632324C5.89833 0.0632324 4.31667 1.93657 4.38833 3.96657C4.455 5.91823 4.36667 8.4449 3.73 10.5066C3.09167 12.5732 2.01333 13.8832 0.25 14.0516V15.9482C2.01333 16.1166 3.09167 17.4266 3.73 19.4932C4.36667 21.5532 4.455 24.0816 4.38667 26.0316C4.31667 28.0632 5.89833 29.9366 8.04 29.9366H29.9633C32.1033 29.9366 33.6867 28.0632 33.6167 26.0316C33.5483 24.0816 33.6367 21.5532 34.2717 19.4932C34.9117 17.4266 35.9883 16.1166 37.75 15.9482V14.0516C35.9867 13.8832 34.9117 12.5732 34.2717 10.5066C33.6367 8.44656 33.5483 5.91823 33.6167 3.96657C33.6867 1.93657 32.1033 0.0632324 29.9633 0.0632324H8.03833ZM25.6733 18.4516C25.6733 21.2482 23.5883 22.9449 20.1267 22.9449H14.2333C14.1498 22.9451 14.0671 22.9289 13.9898 22.897C13.9126 22.8652 13.8424 22.8185 13.7832 22.7595C13.7241 22.7005 13.6772 22.6304 13.6452 22.5533C13.6131 22.4761 13.5967 22.3934 13.5967 22.3099V7.6899C13.5967 7.60637 13.6131 7.52366 13.6452 7.44651C13.6772 7.36936 13.7241 7.29928 13.7832 7.2403C13.8424 7.18131 13.9126 7.13457 13.9898 7.10276C14.0671 7.07094 14.1498 7.05468 14.2333 7.0549H20.0917C22.9783 7.0549 24.8733 8.61823 24.8733 11.0199C24.8733 12.7032 23.5983 14.2132 21.975 14.4766V14.5649C24.185 14.8066 25.6733 16.3382 25.6733 18.4516ZM19.4833 9.06823H16.1233V13.8149H18.9533C21.1417 13.8149 22.3467 12.9349 22.3467 11.3599C22.3467 9.8849 21.31 9.0699 19.4833 9.0699V9.06823ZM16.1233 15.6982V20.9299H19.6067C21.885 20.9299 23.09 20.0149 23.09 18.2966C23.09 16.5799 21.8517 15.6982 19.46 15.6982H16.1233Z" fill="url(#paint0_linear_1_188)"/>
<defs>
<linearGradient id="paint0_linear_1_188" x1="5.84211" y1="29.2105" x2="31.4875" y2="1.22769" gradientUnits="userSpaceOnUse">
<stop stop-color="#2D81FF"/>
<stop offset="1" stop-color="#D1A91C"/>
</linearGradient>
</defs>
</svg>
