<svg width="40" height="25" viewBox="0 0 40 25" fill="none" xmlns="http://www.w3.org/2000/svg">
<path d="M9.4375 6.34375H16.9688V6.9375H10.125V11.4375H16.5625V12.0312H10.125V16.9688H17.0625V17.5625H9.4375V6.34375ZM17.6562 6.34375H18.4688L22.0312 11.2813L25.625 6.34375L30.5625 0.09375L22.4375 11.8125L26.625 17.5625H25.7812L22 12.3125L18.1875 17.5625H17.375L21.5938 11.8125L17.6562 6.34375ZM26.9375 6.9375V6.34375H35.5312V6.9375H31.5625V17.5625H30.875V6.9375H26.9375ZM0 6.34375H0.84375L12.7812 24.0938L7.84375 17.5625L0.71875 7.1875L0.6875 17.5625H0V6.34375ZM35.4688 16.7813C35.625 16.7813 35.7188 16.6875 35.7188 16.5313C35.7188 16.375 35.625 16.2812 35.4688 16.2812C35.3125 16.2812 35.2188 16.375 35.2188 16.5313C35.2188 16.6875 35.3438 16.7813 35.4688 16.7813ZM36.1562 16.125C36.1562 16.5312 36.4688 16.8125 36.9062 16.8125C37.375 16.8125 37.6562 16.5313 37.6562 16.0313V14.3125H37.2812V16.0313C37.2812 16.3125 37.1562 16.4375 36.9062 16.4375C36.6875 16.4375 36.5312 16.3125 36.5312 16.0938H36.1562V16.125ZM38.125 16.0938C38.1562 16.5312 38.5 16.8125 39.0625 16.8125C39.625 16.8125 40 16.5313 40 16.0625C40 15.6875 39.7812 15.5 39.3125 15.375L39.0312 15.3125C38.7188 15.25 38.5938 15.125 38.5938 14.9688C38.5938 14.75 38.7812 14.5938 39.0938 14.5938C39.375 14.5938 39.5625 14.7188 39.5938 14.9688H39.9688C39.9375 14.5625 39.5938 14.2813 39.0938 14.2813C38.5625 14.2813 38.2188 14.5625 38.2188 15C38.2188 15.3438 38.4062 15.5625 38.8438 15.6562L39.1562 15.7188C39.4688 15.7813 39.625 15.9063 39.625 16.0938C39.625 16.3125 39.4062 16.4688 39.0938 16.4688C38.7812 16.4688 38.5312 16.3125 38.5 16.0938H38.125Z" fill="url(#paint0_linear_1_180)"/>
<defs>
<linearGradient id="paint0_linear_1_180" x1="1.29676e-07" y1="17.6815" x2="38.998" y2="18.1364" gradientUnits="userSpaceOnUse">
<stop stop-color="#2D81FF"/>
<stop offset="1" stop-color="#D1A91C"/>
</linearGradient>
</defs>
</svg>
