<svg width="40" height="22" viewBox="0 0 40 22" fill="none" xmlns="http://www.w3.org/2000/svg">
<path d="M11.6862 8.01123H10.11L9.25125 12.425H10.6512C11.575 12.425 12.265 12.25 12.7213 11.8987C13.17 11.5537 13.4762 10.9675 13.6325 10.1537C13.7875 9.37248 13.7162 8.81873 13.4312 8.49373C13.1375 8.17498 12.5575 8.01123 11.6862 8.01123ZM20 0.47998C8.95125 0.47998 0 5.19373 0 11C0 16.8062 8.95125 21.52 20 21.52C31.0487 21.52 40 16.8062 40 11C40 5.19373 31.0487 0.47998 20 0.47998ZM14.5638 12.9012C14.131 13.3171 13.6102 13.6303 13.04 13.8175C12.48 13.9937 11.765 14.0912 10.8988 14.0912H8.925L8.385 16.8912H6.08625L8.1375 6.35123H12.5513C13.88 6.35123 14.85 6.69623 15.4613 7.39248C16.0675 8.08873 16.2563 9.06623 16.0075 10.3162C15.9144 10.8112 15.7435 11.2884 15.5013 11.73C15.2519 12.1674 14.9351 12.5626 14.5625 12.9012H14.5638ZM21.2762 14.0912L22.1813 9.42498C22.285 8.89623 22.2463 8.53373 22.0625 8.33623C21.8875 8.14748 21.5025 8.04998 20.9175 8.04998H19.1012L17.93 14.0912H15.645L17.695 3.54498H19.9738L19.4275 6.35123H21.4587C22.7425 6.35123 23.62 6.57248 24.1025 7.01498C24.5912 7.46498 24.7337 8.18623 24.5462 9.18373L23.5875 14.0925L21.2762 14.0912ZM33.9313 10.3162C33.841 10.812 33.67 11.2896 33.425 11.73C33.178 12.1669 32.8637 12.5621 32.4938 12.9012C32.0571 13.3151 31.5348 13.6279 30.9637 13.8175C30.4037 13.9937 29.6875 14.0912 28.8225 14.0912H26.8563L26.31 16.8912H24.0112L26.0625 6.35123H30.4762C31.805 6.35123 32.775 6.69623 33.3862 7.39998C33.9925 8.08998 34.18 9.06623 33.9313 10.3162ZM29.61 8.01123H28.04L27.1813 12.425H28.575C29.505 12.425 30.195 12.25 30.645 11.8987C31.1 11.5537 31.4062 10.9675 31.5637 10.1537C31.7188 9.37248 31.6475 8.81873 31.3538 8.49373C31.0688 8.17498 30.4825 8.01123 29.61 8.01123Z" fill="url(#paint0_linear_1_172)"/>
<defs>
<linearGradient id="paint0_linear_1_172" x1="1.29676e-07" y1="15.8986" x2="38.9964" y2="16.4175" gradientUnits="userSpaceOnUse">
<stop stop-color="#2D81FF"/>
<stop offset="1" stop-color="#D1A91C"/>
</linearGradient>
</defs>
</svg>
