<svg width="40" height="24" viewBox="0 0 40 24" fill="none" xmlns="http://www.w3.org/2000/svg">
<path d="M20.0016 0C14.6683 0 11.335 2.66667 10.0016 8C12.0016 5.33333 14.335 4.33333 17.0016 5C18.5233 5.38 19.61 6.48333 20.815 7.70667C22.7766 9.69667 25.045 12 30.0016 12C35.335 12 38.6683 9.33333 40.0016 4C38.0016 6.66667 35.6683 7.66667 33.0016 7C31.48 6.62 30.3933 5.51667 29.1883 4.29333C27.2283 2.30333 24.96 0 20.0016 0ZM10.0016 12C4.66831 12 1.33498 14.6667 0.00164795 20C2.00165 17.3333 4.33498 16.3333 7.00165 17C8.52331 17.38 9.60998 18.4833 10.815 19.7067C12.7766 21.6967 15.045 24 20.0016 24C25.335 24 28.6683 21.3333 30.0016 16C28.0016 18.6667 25.6683 19.6667 23.0016 19C21.48 18.62 20.3933 17.5167 19.1883 16.2933C17.2283 14.3033 14.96 12 10.0016 12Z" fill="url(#paint0_linear_1_156)"/>
<defs>
<linearGradient id="paint0_linear_1_156" x1="0.00164808" y1="17.5878" x2="38.9997" y2="18.0427" gradientUnits="userSpaceOnUse">
<stop stop-color="#2D81FF"/>
<stop offset="1" stop-color="#D1A91C"/>
</linearGradient>
</defs>
</svg>
