<svg width="30" height="30" viewBox="0 0 30 30" fill="none" xmlns="http://www.w3.org/2000/svg">
<path d="M27.0667 0H2.93333C2.15537 0 1.40926 0.309047 0.859153 0.859153C0.309047 1.40926 0 2.15537 0 2.93333V27.0667C0 27.8446 0.309047 28.5907 0.859153 29.1408C1.40926 29.691 2.15537 30 2.93333 30H27.0667C27.4519 30 27.8333 29.9241 28.1892 29.7767C28.5451 29.6293 28.8685 29.4132 29.1408 29.1408C29.4132 28.8685 29.6293 28.5451 29.7767 28.1892C29.9241 27.8333 30 27.4519 30 27.0667V2.93333C30 2.54812 29.9241 2.16668 29.7767 1.8108C29.6293 1.45491 29.4132 1.13154 29.1408 0.859153C28.8685 0.586768 28.5451 0.3707 28.1892 0.223287C27.8333 0.0758727 27.4519 0 27.0667 0ZM17.4 16.6667H13.65V27.4H10.6667V16.6667H6.91667V14.2333H17.4V16.6667ZM27.0667 25.4667C26.8254 25.9797 26.4366 26.4091 25.95 26.7C25.438 27.0151 24.8734 27.2353 24.2833 27.35C23.6254 27.4859 22.9551 27.5529 22.2833 27.55C21.5959 27.5494 20.9099 27.4881 20.2333 27.3667C19.6582 27.2489 19.0989 27.0643 18.5667 26.8167V23.9667L18.4667 23.8667H18.5667V23.9833C19.068 24.3744 19.6313 24.6787 20.2333 24.8833C20.8345 25.1122 21.4735 25.2253 22.1167 25.2167C22.4528 25.2225 22.7884 25.189 23.1167 25.1167C23.3632 25.059 23.5994 24.9634 23.8167 24.8333C23.9868 24.7296 24.1296 24.5868 24.2333 24.4167C24.336 24.2229 24.3811 24.0039 24.3633 23.7854C24.3456 23.5669 24.2658 23.358 24.1333 23.1833C23.9767 22.9637 23.7785 22.7768 23.55 22.6333C23.2726 22.4383 22.9767 22.2708 22.6667 22.1333L21.55 21.6667C20.666 21.3026 19.8828 20.7309 19.2667 20C18.751 19.3784 18.4786 18.5907 18.5 17.7833C18.4806 17.17 18.6183 16.5618 18.9 16.0167C19.1689 15.5415 19.5457 15.1361 20 14.8333C20.5062 14.4965 21.0718 14.259 21.6667 14.1333C22.317 13.9837 22.9827 13.9109 23.65 13.9167C24.2577 13.9082 24.8651 13.9472 25.4667 14.0333C25.9672 14.1116 26.4585 14.24 26.9333 14.4167V17.1667C26.7139 17.0103 26.4794 16.8763 26.2333 16.7667C25.9683 16.6526 25.6954 16.5579 25.4167 16.4833C25.1496 16.4051 24.8764 16.3494 24.6 16.3167C24.345 16.2926 24.0883 16.2926 23.8333 16.3167C23.5193 16.3115 23.2058 16.3451 22.9 16.4167C22.6491 16.4693 22.4076 16.5592 22.1833 16.6833C22.0083 16.7865 21.8599 16.9292 21.75 17.1C21.6502 17.266 21.5983 17.4563 21.6 17.65C21.5959 17.8567 21.654 18.0599 21.7667 18.2333C21.9036 18.4226 22.0728 18.5863 22.2667 18.7167C22.5017 18.9037 22.7592 19.0605 23.0333 19.1833L24.0833 19.65C24.5661 19.8496 25.034 20.0835 25.4833 20.35C25.8785 20.5662 26.2382 20.8416 26.55 21.1667C26.8555 21.4627 27.0942 21.8208 27.25 22.2167C27.4098 22.6717 27.4888 23.1511 27.4833 23.6333C27.4714 24.2558 27.3295 24.8689 27.0667 25.4333V25.4667Z" fill="url(#paint0_linear_1_164)"/>
<defs>
<linearGradient id="paint0_linear_1_164" x1="5.52632" y1="29.7368" x2="28.7944" y2="2.10121" gradientUnits="userSpaceOnUse">
<stop stop-color="#2D81FF"/>
<stop offset="1" stop-color="#D1A91C"/>
</linearGradient>
</defs>
</svg>
