<svg width="1920" height="1080" viewBox="0 0 1920 1080" fill="none" xmlns="http://www.w3.org/2000/svg">
<g clip-path="url(#clip0_837_511)">
<g opacity="0.5" filter="url(#filter0_f_837_511)">
<path d="M1316.54 948.98C1340.52 1160.05 1111.93 1359.32 805.983 1394.08C500.032 1428.84 169.978 845.066 146 634C122.022 422.935 440.049 933.257 746 898.5C1051.95 863.743 1292.56 737.915 1316.54 948.98Z" fill="#8349FF"/>
</g>
<g opacity="0.5" filter="url(#filter1_f_837_511)">
<path d="M422.527 1053.36C333.73 953.901 328.655 877.99 284.345 761.405C198.812 536.357 261.808 388.565 160.146 167.749C-47.287 -282.813 -405.991 1135.47 104.216 1394.73C424.949 1557.7 1363.46 1596.77 1080.53 1394.73C967.543 1314.03 859.398 1322.55 731.791 1256.88C600.096 1189.1 513.144 1154.85 422.527 1053.36Z" fill="url(#paint0_linear_837_511)"/>
</g>
<g opacity="0.5" filter="url(#filter2_f_837_511)">
<path d="M1221.01 844.419C1079.14 855.965 986.319 917.357 895.696 1059.59C712.111 1347.72 1777.39 1433.83 1630.29 1118.97C1537.54 920.44 1402.22 829.67 1221.01 844.419Z" fill="#7367F0"/>
</g>
<g opacity="0.5" filter="url(#filter3_f_837_511)">
<path d="M1225.01 1034.27C1107.11 1042.03 1030.15 1085.55 955.299 1186.81C803.664 1391.95 1689.61 1457.12 1566.23 1231.75C1488.43 1089.65 1375.62 1024.36 1225.01 1034.27Z" fill="#00F0FF"/>
</g>
</g>
<defs>
<filter id="filter0_f_837_511" x="-175.276" y="262.671" width="1813.54" height="1452.9" filterUnits="userSpaceOnUse" color-interpolation-filters="sRGB">
<feFlood flood-opacity="0" result="BackgroundImageFix"/>
<feBlend mode="normal" in="SourceGraphic" in2="BackgroundImageFix" result="shape"/>
<feGaussianBlur stdDeviation="160" result="effect1_foregroundBlur_837_511"/>
</filter>
<filter id="filter1_f_837_511" x="-407" y="-170" width="1790" height="1952" filterUnits="userSpaceOnUse" color-interpolation-filters="sRGB">
<feFlood flood-opacity="0" result="BackgroundImageFix"/>
<feBlend mode="normal" in="SourceGraphic" in2="BackgroundImageFix" result="shape"/>
<feGaussianBlur stdDeviation="125" result="effect1_foregroundBlur_837_511"/>
</filter>
<filter id="filter2_f_837_511" x="554.353" y="522.874" width="1409.93" height="1115.78" filterUnits="userSpaceOnUse" color-interpolation-filters="sRGB">
<feFlood flood-opacity="0" result="BackgroundImageFix"/>
<feBlend mode="normal" in="SourceGraphic" in2="BackgroundImageFix" result="shape"/>
<feGaussianBlur stdDeviation="160" result="effect1_foregroundBlur_837_511"/>
</filter>
<filter id="filter3_f_837_511" x="617.779" y="713.292" width="1280.28" height="980.033" filterUnits="userSpaceOnUse" color-interpolation-filters="sRGB">
<feFlood flood-opacity="0" result="BackgroundImageFix"/>
<feBlend mode="normal" in="SourceGraphic" in2="BackgroundImageFix" result="shape"/>
<feGaussianBlur stdDeviation="160" result="effect1_foregroundBlur_837_511"/>
</filter>
<linearGradient id="paint0_linear_837_511" x1="247.333" y1="580.642" x2="458.275" y2="1354.05" gradientUnits="userSpaceOnUse">
<stop stop-color="#F59651"/>
<stop offset="1" stop-color="#7367F0"/>
</linearGradient>
<clipPath id="clip0_837_511">
<rect width="1920" height="1080" fill="white"/>
</clipPath>
</defs>
</svg>
