<svg width="1701" height="1080" viewBox="0 0 1701 1080" fill="none" xmlns="http://www.w3.org/2000/svg">
<line x1="0.5" y1="2.18557e-08" x2="0.499953" y2="1080" stroke="#262626" stroke-opacity="0.15"/>
<line x1="100.5" y1="2.18557e-08" x2="100.5" y2="1080" stroke="#262626" stroke-opacity="0.15"/>
<line x1="200.5" y1="2.18557e-08" x2="200.5" y2="1080" stroke="#262626" stroke-opacity="0.15"/>
<line x1="300.5" y1="2.18557e-08" x2="300.5" y2="1080" stroke="#262626" stroke-opacity="0.15"/>
<line x1="400.5" y1="2.18557e-08" x2="400.5" y2="1080" stroke="#262626" stroke-opacity="0.15"/>
<line x1="500.5" y1="2.18557e-08" x2="500.5" y2="1080" stroke="#262626" stroke-opacity="0.15"/>
<line x1="600.5" y1="2.18557e-08" x2="600.5" y2="1080" stroke="#262626" stroke-opacity="0.15"/>
<line x1="700.5" y1="2.18557e-08" x2="700.5" y2="1080" stroke="#262626" stroke-opacity="0.15"/>
<line x1="800.5" y1="2.18557e-08" x2="800.5" y2="1080" stroke="#262626" stroke-opacity="0.15"/>
<line x1="900.5" y1="2.18557e-08" x2="900.5" y2="1080" stroke="#262626" stroke-opacity="0.15"/>
<line x1="1000.5" y1="2.18557e-08" x2="1000.5" y2="1080" stroke="#262626" stroke-opacity="0.15"/>
<line x1="1100.5" y1="2.18557e-08" x2="1100.5" y2="1080" stroke="#262626" stroke-opacity="0.15"/>
<line x1="1200.5" y1="2.18557e-08" x2="1200.5" y2="1080" stroke="#262626" stroke-opacity="0.15"/>
<line x1="1300.5" y1="2.18557e-08" x2="1300.5" y2="1080" stroke="#262626" stroke-opacity="0.15"/>
<line x1="1400.5" y1="2.18557e-08" x2="1400.5" y2="1080" stroke="#262626" stroke-opacity="0.15"/>
<line x1="1500.5" y1="2.18557e-08" x2="1500.5" y2="1080" stroke="#262626" stroke-opacity="0.15"/>
<line x1="1600.5" y1="2.18557e-08" x2="1600.5" y2="1080" stroke="#262626" stroke-opacity="0.15"/>
<line x1="1700.5" y1="2.18557e-08" x2="1700.5" y2="1080" stroke="#262626" stroke-opacity="0.15"/>
<line x1="0.5" y1="2.18557e-08" x2="0.499953" y2="1080" stroke="#262626" stroke-opacity="0.15"/>
<line x1="100.5" y1="2.18557e-08" x2="100.5" y2="1080" stroke="#262626" stroke-opacity="0.15"/>
<line x1="200.5" y1="2.18557e-08" x2="200.5" y2="1080" stroke="#262626" stroke-opacity="0.15"/>
<line x1="300.5" y1="2.18557e-08" x2="300.5" y2="1080" stroke="#262626" stroke-opacity="0.15"/>
<line x1="400.5" y1="2.18557e-08" x2="400.5" y2="1080" stroke="#262626" stroke-opacity="0.15"/>
<line x1="500.5" y1="2.18557e-08" x2="500.5" y2="1080" stroke="#262626" stroke-opacity="0.15"/>
<line x1="600.5" y1="2.18557e-08" x2="600.5" y2="1080" stroke="#262626" stroke-opacity="0.15"/>
<line x1="700.5" y1="2.18557e-08" x2="700.5" y2="1080" stroke="#262626" stroke-opacity="0.15"/>
<line x1="800.5" y1="2.18557e-08" x2="800.5" y2="1080" stroke="#262626" stroke-opacity="0.15"/>
<line x1="900.5" y1="2.18557e-08" x2="900.5" y2="1080" stroke="#262626" stroke-opacity="0.15"/>
<line x1="1000.5" y1="2.18557e-08" x2="1000.5" y2="1080" stroke="#262626" stroke-opacity="0.15"/>
<line x1="1100.5" y1="2.18557e-08" x2="1100.5" y2="1080" stroke="#262626" stroke-opacity="0.15"/>
<line x1="1200.5" y1="2.18557e-08" x2="1200.5" y2="1080" stroke="#262626" stroke-opacity="0.15"/>
<line x1="1300.5" y1="2.18557e-08" x2="1300.5" y2="1080" stroke="#262626" stroke-opacity="0.15"/>
<line x1="1400.5" y1="2.18557e-08" x2="1400.5" y2="1080" stroke="#262626" stroke-opacity="0.15"/>
<line x1="1500.5" y1="2.18557e-08" x2="1500.5" y2="1080" stroke="#262626" stroke-opacity="0.15"/>
<line x1="1600.5" y1="2.18557e-08" x2="1600.5" y2="1080" stroke="#262626" stroke-opacity="0.15"/>
<line x1="1700.5" y1="2.18557e-08" x2="1700.5" y2="1080" stroke="#262626" stroke-opacity="0.15"/>
</svg>
